<?xml version="1.0" encoding="UTF-8"?>
<svg id="Layer_2" data-name="Layer 2" xmlns="http://www.w3.org/2000/svg" viewBox="0 0 188.79 122.07">
  <defs>
    <style>
      .cls-1 {
        fill: #f2e8cf;
      }

      .cls-2 {
        fill: #386641;
      }

      .cls-3 {
        fill: #bc4749;
      }
    </style>
  </defs>
  <g id="S">
    <path class="cls-2" d="M4.94,33.64c-2.77-2-4.28-4.93-4.51-8.79h11.89c.17,2.05,1.07,3.07,2.72,3.07.6,0,1.12-.14,1.54-.43.42-.29.63-.73.63-1.33,0-.84-.45-1.52-1.36-2.04-.91-.52-2.32-1.12-4.23-1.79-2.28-.81-4.17-1.6-5.67-2.37-1.49-.77-2.78-1.9-3.85-3.37s-1.6-3.38-1.56-5.69c0-2.32.6-4.29,1.79-5.92,1.19-1.63,2.82-2.86,4.89-3.7,2.06-.84,4.39-1.26,6.98-1.26,4.37,0,7.84,1.01,10.41,3.02,2.57,2.02,3.92,4.86,4.06,8.52h-12.04c-.03-1.01-.29-1.73-.76-2.17-.47-.43-1.04-.65-1.71-.65-.47,0-.86.16-1.16.48-.3.32-.46.76-.46,1.34,0,.81.44,1.47,1.34,1.99.89.52,2.31,1.15,4.26,1.89,2.25.84,4.11,1.65,5.57,2.42s2.73,1.85,3.8,3.23c1.08,1.38,1.61,3.11,1.61,5.19s-.54,4.14-1.61,5.87c-1.07,1.73-2.64,3.08-4.69,4.06-2.05.98-4.48,1.46-7.31,1.46-4.27,0-7.79-1-10.56-3Z"/>
    <path class="cls-1" d="M44.22,9.52v4.38h11.08v8.41h-11.08v5.04h12.6v8.92h-23.78V.6h23.78v8.92h-12.6Z"/>
    <path class="cls-2" d="M62.18,8.97c1.43-2.75,3.47-4.9,6.12-6.43,2.65-1.53,5.78-2.29,9.37-2.29,3.09,0,5.85.58,8.29,1.74,2.43,1.16,4.42,2.8,5.95,4.91,1.53,2.12,2.54,4.59,3.05,7.41h-11.79c-.54-1.17-1.3-2.09-2.29-2.75-.99-.65-2.12-.98-3.4-.98-1.88,0-3.37.71-4.46,2.12-1.09,1.41-1.64,3.31-1.64,5.7s.55,4.28,1.64,5.69c1.09,1.41,2.58,2.12,4.46,2.12,1.28,0,2.41-.33,3.4-.98.99-.66,1.76-1.57,2.29-2.75h11.79c-.5,2.82-1.52,5.29-3.05,7.41-1.53,2.12-3.51,3.75-5.95,4.91-2.44,1.16-5.2,1.74-8.29,1.74-3.59,0-6.72-.76-9.37-2.29-2.66-1.53-4.7-3.67-6.12-6.43-1.43-2.75-2.14-5.89-2.14-9.42s.71-6.67,2.14-9.42Z"/>
    <path class="cls-3" d="M116.93,36.28l-6.7-12.8h-.05v12.8h-11.19V.6h16.63c2.89,0,5.36.51,7.41,1.54,2.05,1.03,3.58,2.42,4.61,4.18,1.03,1.76,1.54,3.75,1.54,5.97,0,2.38-.66,4.5-1.99,6.35-1.33,1.85-3.23,3.18-5.72,3.98l7.76,13.66h-12.29ZM110.18,16.02h4.43c1.08,0,1.88-.24,2.42-.73.54-.49.81-1.25.81-2.29,0-.94-.28-1.68-.83-2.22-.56-.54-1.35-.81-2.39-.81h-4.43v6.05Z"/>
    <path class="cls-1" d="M143.94,9.52v4.38h11.08v8.41h-11.08v5.04h12.6v8.92h-23.78V.6h23.78v8.92h-12.6Z"/>
    <path class="cls-3" d="M188.79.6v8.87h-9.47v26.81h-11.19V9.47h-9.37V.6h30.03Z"/>
    <path class="cls-3" d="M4.94,82.78c-2.77-2-4.28-4.93-4.51-8.79h11.89c.17,2.05,1.07,3.07,2.72,3.07.6,0,1.12-.14,1.54-.43.42-.29.63-.73.63-1.33,0-.84-.45-1.52-1.36-2.04-.91-.52-2.32-1.12-4.23-1.79-2.28-.81-4.17-1.6-5.67-2.37-1.49-.77-2.78-1.9-3.85-3.37s-1.6-3.38-1.56-5.69c0-2.32.6-4.29,1.79-5.92,1.19-1.63,2.82-2.86,4.89-3.7,2.06-.84,4.39-1.26,6.98-1.26,4.37,0,7.84,1.01,10.41,3.02,2.57,2.02,3.92,4.86,4.06,8.52h-12.04c-.03-1.01-.29-1.73-.76-2.17-.47-.43-1.04-.65-1.71-.65-.47,0-.86.16-1.16.48-.3.32-.46.76-.46,1.34,0,.81.44,1.47,1.34,1.99.89.52,2.31,1.15,4.26,1.89,2.25.84,4.11,1.65,5.57,2.42s2.73,1.85,3.8,3.23c1.08,1.38,1.61,3.11,1.61,5.19s-.54,4.14-1.61,5.87c-1.07,1.73-2.64,3.08-4.69,4.06-2.05.98-4.48,1.46-7.31,1.46-4.27,0-7.79-1-10.56-3Z"/>
    <path class="cls-2" d="M59.32,80.03h-11.89l-1.76,5.39h-11.74l13.05-35.68h12.9l13,35.68h-11.79l-1.76-5.39ZM56.6,71.61l-3.23-9.93-3.23,9.93h6.45Z"/>
    <path class="cls-1" d="M109.15,85.42h-11.19l-11.84-17.94v17.94h-11.19v-35.68h11.19l11.84,18.24v-18.24h11.19v35.68Z"/>
    <path class="cls-2" d="M145.69,49.74v8.87h-9.47v26.81h-11.19v-26.81h-9.37v-8.87h30.03Z"/>
    <path class="cls-2" d="M175.23,79.1h-11.89l-1.76,5.39h-11.74l13.05-35.68h12.9l13,35.68h-11.79l-1.76-5.39ZM172.51,70.68l-3.23-9.93-3.23,9.93h6.45Z"/>
    <path class="cls-3" d="M32.5,94.76v27.04h-8.44v-13.48l-4.16,13.48h-7.26l-4.16-13.48v13.48H0v-27.04h10.39l5.96,16.23,5.81-16.23h10.35Z"/>
    <path class="cls-1" d="M44.8,101.52v3.32h8.4v6.38h-8.4v3.82h9.55v6.76h-18.03v-27.04h18.03v6.76h-9.55Z"/>
    <path class="cls-3" d="M90.06,94.76v27.04h-8.44v-13.48l-4.16,13.48h-7.26l-4.16-13.48v13.48h-8.48v-27.04h10.39l5.96,16.23,5.81-16.23h10.35Z"/>
    <path class="cls-2" d="M115.78,110.28c.9,1.18,1.36,2.55,1.36,4.11,0,2.37-.78,4.2-2.35,5.48-1.57,1.29-3.81,1.93-6.74,1.93h-14.17v-27.04h13.79c2.75,0,4.91.6,6.49,1.79,1.58,1.2,2.37,2.94,2.37,5.23,0,1.58-.41,2.91-1.24,3.99-.83,1.08-1.93,1.8-3.3,2.16,1.63.38,2.9,1.17,3.8,2.35ZM102.36,105.3h3.28c.76,0,1.33-.15,1.7-.46.37-.31.55-.78.55-1.41s-.19-1.15-.55-1.47c-.37-.32-.94-.48-1.7-.48h-3.28v3.82ZM107.92,114.56c.37-.29.55-.77.55-1.43,0-1.3-.75-1.95-2.25-1.95h-3.86v3.82h3.86c.76,0,1.33-.15,1.7-.44Z"/>
    <path class="cls-1" d="M128.48,101.52v3.32h8.4v6.38h-8.4v3.82h9.55v6.76h-18.03v-27.04h18.03v6.76h-9.55Z"/>
    <path class="cls-1" d="M154.83,121.8l-5.08-9.7h-.04v9.7h-8.48v-27.04h12.6c2.19,0,4.06.39,5.61,1.17,1.55.78,2.72,1.83,3.49,3.17.78,1.34,1.17,2.85,1.17,4.53,0,1.81-.5,3.41-1.51,4.81-1.01,1.4-2.45,2.41-4.33,3.02l5.88,10.35h-9.32ZM149.72,106.45h3.36c.81,0,1.43-.18,1.83-.55.41-.37.61-.95.61-1.74,0-.71-.21-1.27-.63-1.68-.42-.41-1.03-.61-1.81-.61h-3.36v4.58Z"/>
    <path class="cls-2" d="M169.41,119.8c-2.1-1.51-3.24-3.74-3.42-6.67h9.01c.13,1.55.81,2.33,2.06,2.33.46,0,.85-.11,1.17-.33.32-.22.48-.55.48-1.01,0-.64-.34-1.15-1.03-1.55s-1.76-.85-3.21-1.36c-1.73-.61-3.16-1.21-4.3-1.79-1.13-.58-2.11-1.44-2.92-2.56-.81-1.12-1.21-2.56-1.18-4.32,0-1.76.45-3.25,1.36-4.49.9-1.23,2.14-2.17,3.71-2.81,1.57-.64,3.33-.95,5.29-.95,3.31,0,5.94.76,7.89,2.29,1.95,1.53,2.97,3.68,3.07,6.46h-9.13c-.03-.76-.22-1.31-.57-1.64-.36-.33-.79-.5-1.3-.5-.36,0-.65.12-.88.36-.23.24-.34.58-.34,1.01,0,.61.34,1.11,1.01,1.51.67.39,1.75.87,3.23,1.43,1.71.64,3.11,1.25,4.22,1.83,1.11.59,2.07,1.4,2.88,2.45s1.22,2.36,1.22,3.93c0,1.66-.41,3.14-1.22,4.45-.81,1.31-2,2.34-3.55,3.08-1.55.74-3.4,1.11-5.54,1.11-3.23,0-5.9-.76-8-2.27Z"/>
  </g>
</svg>