<?xml version="1.0" encoding="UTF-8"?>
<svg id="Layer_2" data-name="Layer 2" xmlns="http://www.w3.org/2000/svg" viewBox="0 0 117.14 113.32">
  <defs>
    <style>
      .cls-1 {
        fill: #bc4749;
      }

      .cls-1, .cls-2, .cls-3, .cls-4 {
        stroke: #000;
        stroke-miterlimit: 10;
        stroke-width: 2px;
      }

      .cls-2, .cls-3 {
        fill: #eeeded;
      }

      .cls-3 {
        stroke-linecap: round;
      }

      .cls-4 {
        fill: #f7c2ad;
      }
    </style>
  </defs>
  <g id="S">
    <path class="cls-2" d="M110.98,40.83c0,2.21-.9,4.21-2.34,5.66-1.45,1.45-3.45,2.34-5.66,2.34H13.11c-4.42,0-8-3.58-8-8,0-2.21.89-4.21,2.34-5.66,1.45-1.45,3.45-2.34,5.66-2.34h89.87c4.42,0,8,3.58,8,8Z"/>
    <circle class="cls-2" cx="87.17" cy="11.57" r="10.57"/>
    <path class="cls-1" d="M97.74,32.83H18.35c6.29-15.75,21.69-26.89,39.69-26.89s33.41,11.14,39.7,26.89Z"/>
    <circle class="cls-4" cx="107.47" cy="66.54" r="8.67"/>
    <circle class="cls-4" cx="9.67" cy="66.54" r="8.67"/>
    <path class="cls-2" d="M102.97,47.45H13.97c-1.89,7.41-1.22,14.47-.25,19.27-9.25,32,20.75,31.51,20.75,31.51,0,0-.84,14.34,23.58,14.09,24.43.25,23.58-14.09,23.58-14.09,0,0,28.9.47,21.22-29.77,1.14-4.73,2.27-12.65.13-21.01ZM98.15,64.02c-.7,3.99-1.72,6.55-1.72,6.55,0,0-6.13-4.14-17.36-3.15-6.42.57-8.64-1.51-11.49-3.4-2.15-1.42-4.64-2.73-9.54-2.73s-7.39,1.31-9.53,2.73c-2.85,1.89-5.07,3.97-11.49,3.4-11.23-.99-17.36,3.15-17.36,3.15,0,0-1.02-2.56-1.72-6.55-.76-4.22-1.15-10.06.41-16.17h79.39c1.56,6.11,1.17,11.95.41,16.17Z"/>
    <path class="cls-4" d="M98.15,64.02c-.7,3.99-1.72,6.55-1.72,6.55,0,0-6.13-4.14-17.36-3.15-6.42.57-8.64-1.51-11.49-3.4-2.15-1.42-4.64-2.73-9.54-2.73s-7.39,1.31-9.53,2.73c-2.85,1.89-5.07,3.97-11.49,3.4-11.23-.99-17.36,3.15-17.36,3.15,0,0-1.02-2.56-1.72-6.55-.76-4.22-1.15-10.06.41-16.17h79.39c1.56,6.11,1.17,11.95.41,16.17Z"/>
    <rect x="76.59" y="51.89" width="3.57" height="9.19" rx="1.79" ry="1.79"/>
    <rect x="36.17" y="51.89" width="3.57" height="9.19" rx="1.79" ry="1.79"/>
    <path class="cls-3" d="M51.48,69.68c0,6.64,13.16,6.64,13.16,0"/>
  </g>
</svg>